<svg width="131" height="127" viewBox="0 0 131 127" fill="none" xmlns="http://www.w3.org/2000/svg">
<path d="M0.680719 41.2896L8.88106 47.6968L1.16298 62.4821C-2.69596 69.2999 3.93346 75.9413 8.15735 78.2532C12.3155 80.529 18.7694 80.7996 24.7991 80.7176L35.6524 62.975L43.8527 67.4106L29.6227 41.0434L0.680719 41.2896ZM1.88648 77.4829L19.4929 110.011C23.0303 114.528 29.7032 115.596 36.6171 115.432H55.1883V84.6292L19.9754 84.3828C14.5087 84.711 7.35337 83.5611 1.88648 77.4829ZM112.658 17.5379L103.078 21.6038L93.8885 7.68572C89.7967 1.00536 80.7735 3.58362 76.7039 6.15718C72.6977 8.6907 69.332 14.2043 66.4806 19.5177L76.7367 37.612L68.8816 42.6336L98.8417 42.971L112.658 17.5379ZM80.4178 1.04603L43.4325 0.675293C37.7663 1.57881 33.5972 6.89715 30.389 13.0242L21.3856 29.2669L48.3264 44.2005L65.6135 13.5219C67.9764 8.58089 72.4512 2.88046 80.4178 1.04603ZM82.0266 126.558L83.1144 116.208L99.743 114.918C107.569 114.578 109.689 105.437 109.411 100.629C109.138 95.8971 105.947 90.2804 102.682 85.2106L81.8842 85.4086L81.3001 76.1037L66.4802 102.144L82.0266 126.558ZM112.081 106.356L130.336 74.1877C132.293 68.7938 129.663 62.569 125.859 56.7926L116.018 41.0432L89.8956 57.3662L108.347 87.3592C111.523 91.8212 114.339 98.4983 112.081 106.356Z" fill="white"/>
</svg>
