<svg width="131" height="61" viewBox="0 0 131 61" fill="none" xmlns="http://www.w3.org/2000/svg">
<path d="M121.51 15.2581H115.426C112.578 15.2581 110.261 12.9375 110.261 10.0936C110.261 4.86154 106.004 0.608398 100.772 0.608398H9.48955C4.25749 0.608398 0 4.86154 0 10.0936V51.14C0 56.3721 4.25749 60.6252 9.48955 60.6252H100.772C106.004 60.6252 110.262 56.3721 110.262 51.14C110.262 48.2961 112.578 45.9755 115.426 45.9755H121.51C126.743 45.9755 131 41.7139 131 36.4819V24.752C131 19.5197 126.742 15.2581 121.51 15.2581ZM126.679 36.4819C126.679 39.3342 124.358 41.6548 121.51 41.6548H115.426C110.194 41.6548 105.941 45.908 105.941 51.14C105.941 53.9839 103.62 56.3045 100.772 56.3045H9.48955C6.64133 56.3045 4.32069 53.9839 4.32069 51.14V10.0936C4.32069 7.24973 6.64133 4.92909 9.48955 4.92909H100.772C103.62 4.92909 105.941 7.24973 105.941 10.0936C105.941 15.3257 110.194 19.5788 115.426 19.5788H121.51C124.359 19.5788 126.679 21.8994 126.679 24.7518L126.679 36.4819Z" fill="white"/>
<path d="M29.2996 44.0685H21.7259C18.8777 44.0685 16.557 41.7479 16.557 38.904V22.3302C16.557 19.4863 18.8777 17.1657 21.7259 17.1657H37.6204C38.8145 17.1657 39.7806 16.1952 39.7806 15.0054C39.7806 13.8157 38.8145 12.8452 37.6204 12.8452H21.7259C16.4938 12.8452 12.2363 17.0984 12.2363 22.3304V38.9042C12.2363 44.1363 16.4938 48.3895 21.7259 48.3895H29.2998C30.4939 48.3895 31.4601 47.419 31.4601 46.2292C31.4601 45.039 30.4937 44.0685 29.2996 44.0685Z" fill="white"/>
<path d="M118.409 28.4565H98.025V22.3299C98.025 17.0979 93.7675 12.8447 88.5354 12.8447H84.6663C83.4722 12.8447 82.5061 13.8152 82.5061 15.0049C82.5061 16.1947 83.4722 17.1652 84.6663 17.1652H88.5354C91.3836 17.1652 93.7043 19.4858 93.7043 22.3297V38.9035C93.7043 41.7474 91.3836 44.068 88.5354 44.068H73.4678C72.2737 44.068 71.3076 45.0385 71.3076 46.2282C71.3076 47.418 72.2737 48.3885 73.4678 48.3885H88.5354C93.7675 48.3885 98.025 44.1353 98.025 38.9032V32.7767H118.409C119.603 32.7767 120.569 31.8062 120.569 30.6165C120.569 29.427 119.603 28.4565 118.409 28.4565Z" fill="white"/>
<path d="M73.6831 12.1865L71.1642 12.3216C70.3413 12.3723 50.852 13.5114 41.4259 21.9588C38.4428 24.9378 36.8099 28.9039 36.8184 33.1151C36.8309 37.3175 38.4766 41.2754 41.4597 44.2544C44.561 47.3598 48.6327 48.9126 52.7001 48.9126C56.7381 48.9126 60.7676 47.3767 63.831 44.3135L63.9617 44.1869C71.1179 37.0223 73.3415 15.6045 73.4301 14.7016L73.6831 12.1865ZM60.9319 41.1063L60.7758 41.2583C56.8455 45.1845 50.8285 45.428 46.3492 42.4186L54.0101 34.7605H60.4214C61.6155 34.7605 62.5816 33.79 62.5816 32.6003C62.5816 31.4105 61.6155 30.44 60.4214 30.44H58.3318L61.9195 26.8537C62.1201 26.6531 62.2793 26.415 62.3879 26.1529C62.4965 25.8908 62.5524 25.6099 62.5524 25.3262C62.5524 25.0425 62.4965 24.7616 62.3879 24.4995C62.2793 24.2374 62.1201 23.9993 61.9195 23.7987C61.7189 23.5981 61.4808 23.4389 61.2187 23.3303C60.9566 23.2217 60.6757 23.1658 60.392 23.1658C60.1083 23.1658 59.8274 23.2217 59.5653 23.3303C59.3032 23.4389 59.0651 23.5981 58.8645 23.7987L49.9742 32.687V30.0181C49.9742 28.8284 49.008 27.8579 47.8139 27.8579C46.6199 27.8579 45.6537 28.8284 45.6537 30.0181V37.0064L43.286 39.3724C42.0203 37.501 41.1452 35.4104 41.1388 33.1066C41.1304 30.0516 42.3204 27.174 44.5482 24.9462C50.7929 19.3598 63.3919 17.4526 68.8182 16.8703C67.8644 23.8657 65.316 36.7181 60.9319 41.1063Z" fill="white"/>
</svg>
