<svg width="123" height="132" viewBox="0 0 123 132" fill="none" xmlns="http://www.w3.org/2000/svg">
<path d="M66.2023 129.591L77.1867 109.351C84.8149 112.606 92.2396 114.436 98.0367 114.131C104.139 113.724 106.173 107.52 107.292 98.57C108.614 98.4683 110.038 98.4683 110.75 97.2479C112.072 94.9088 108.818 91.6541 108.818 91.6541C108.818 91.6541 114.005 90.1284 112.886 88.7044C111.869 87.5856 111.055 83.1106 110.852 81.7882C112.785 81.6864 115.022 81.4831 117.158 80.9744C122.243 79.6523 120.311 78.0248 120.311 78.0248C118.989 75.889 115.225 67.3455 112.377 60.8361C113.293 57.073 113.903 53.1063 113.903 49.1397C113.903 22.7973 92.0357 1.94727 67.1172 1.94727C42.097 1.94727 17.5854 30.4255 26.1288 55.344C29.8919 66.4302 32.8415 74.5668 35.7911 80.6694L19.9248 106.707" fill="#FFF3EE"/>
<path d="M113.7 77.9233C112.378 75.7874 108.615 67.244 105.767 60.7346C106.682 56.9715 107.293 53.0048 107.293 49.0382C107.293 24.0179 87.5611 3.87984 64.0666 1.94727C40.1654 4.1852 17.993 31.3411 26.2314 55.1407C29.9945 66.2269 32.9441 74.3635 35.8937 80.4661L20.0273 106.503L70.4745 109.351C72.407 110.165 74.2376 110.877 76.0683 111.487L77.1872 109.351C82.6795 111.69 87.9683 113.318 92.7484 113.826C97.7321 112.606 99.5629 106.707 100.58 98.57C101.902 98.4683 103.326 98.4683 104.038 97.2479C105.36 94.9088 102.105 91.6541 102.105 91.6541C102.105 91.6541 107.292 90.1284 106.174 88.7044C105.157 87.5856 104.343 83.1106 104.14 81.7882C106.072 81.6864 108.31 81.4831 110.446 80.9744C115.633 79.5508 113.7 77.9233 113.7 77.9233Z" fill="white"/>
<path d="M66.2015 131.117C65.9982 131.117 65.6929 131.015 65.4896 130.913C64.7776 130.507 64.4725 129.591 64.8794 128.879L75.8638 108.639C76.2707 107.927 77.0845 107.622 77.7964 107.927C85.6279 111.284 92.6457 112.911 98.0363 112.504C102.511 112.199 104.647 108.233 105.868 98.2652C105.97 97.5532 106.58 96.9431 107.292 96.9431H107.597C108.716 96.8413 109.326 96.8413 109.529 96.4344C110.038 95.5191 108.716 93.4848 107.8 92.6713C107.394 92.2644 107.292 91.7561 107.394 91.2474C107.495 90.7387 107.902 90.3322 108.411 90.1286C109.529 89.8235 110.648 89.3148 111.258 88.908C110.546 87.5858 109.936 85.2464 109.326 81.992C109.224 81.5851 109.326 81.0767 109.631 80.7714C109.936 80.4663 110.343 80.2627 110.75 80.1612C112.987 80.0594 115.021 79.8561 116.75 79.3474C117.971 79.0424 118.683 78.7373 118.988 78.5337C117.869 76.6011 115.225 70.804 111.055 61.345C110.953 61.0399 110.852 60.7348 110.953 60.3279C111.868 56.5648 112.377 52.8015 112.377 48.9366C112.377 24.1199 91.6284 3.26961 67.1168 3.26961C54.8102 3.26961 41.995 10.491 33.6548 22.0856C26.2302 32.4598 23.9925 44.258 27.5523 54.6323C31.519 66.1254 34.265 73.8551 37.1128 79.754C37.3161 80.2627 37.3161 80.7711 37.011 81.178L21.1447 107.215C20.7378 107.927 19.7208 108.131 19.0088 107.724C18.2969 107.317 18.0936 106.3 18.5002 105.588L33.9599 80.2627C31.2139 74.3638 28.3661 66.6337 24.6027 55.5475C20.7378 44.3595 23.1788 31.4428 31.1121 20.2548C39.9609 7.84643 53.6917 0.116699 67.0153 0.116699C93.2559 0.116699 115.327 22.3906 115.327 48.8348C115.327 52.6997 114.818 56.5646 113.903 60.4294C117.767 69.278 120.412 75.0754 121.429 76.8044C121.836 77.3131 122.243 78.1266 122.039 79.0421C121.632 80.8729 119.191 81.7881 117.462 82.195C116.038 82.6019 114.411 82.8052 112.581 83.0087C113.191 85.7548 113.699 87.1787 114.004 87.5856C114.513 88.1957 114.615 88.9077 114.411 89.6196C114.106 90.7385 112.784 91.5522 111.258 92.2642C112.275 93.7899 113.089 95.9257 111.97 97.9598C111.157 99.3837 109.733 99.7906 108.512 99.8924C107.394 107.927 105.258 115.047 97.9348 115.555C92.3409 115.861 85.4246 114.437 77.5931 111.182L67.2189 130.303C67.3204 130.812 66.812 131.117 66.2015 131.117Z" fill="#2E2E2E"/>
<path d="M63.9641 11.7114L55.9293 19.7462C53.9968 21.6788 53.9968 24.8317 55.9293 26.8658L63.9641 34.9006C65.8967 36.8332 69.0496 36.8332 71.0837 34.9006C72.8127 33.1716 73.0163 30.4256 71.5924 28.3912C82.475 29.2049 91.0185 38.2568 91.0185 49.2412C91.0185 60.7343 81.6613 70.1931 70.0667 70.1931C58.5736 70.1931 49.1149 60.8358 49.1149 49.2412C49.1149 46.4952 46.8772 44.2575 44.1312 44.2575C41.3851 44.2575 39.1475 46.4952 39.1475 49.2412C39.1475 66.3282 52.9797 80.1604 70.0667 80.1604C87.1536 80.1604 100.986 66.3287 100.986 49.2418C100.986 32.6635 87.8656 19.1363 71.4906 18.3226C72.2025 17.4073 72.5076 16.39 72.5076 15.2715C72.5076 13.9493 71.999 12.7287 71.0837 11.7117C69.0494 9.7791 65.8964 9.7791 63.9641 11.7114Z" fill="#83ED3E"/>
<path d="M42.707 49.2417C42.707 65.7185 55.624 79.1439 71.8972 80.0591C88.1705 79.1439 101.087 65.6167 101.087 49.2417C101.087 32.6634 87.9672 19.1363 71.5922 18.3225C72.3041 17.4073 72.6092 16.3899 72.6092 15.2714C72.6092 13.9493 72.1005 12.7286 71.1853 11.7116C70.6766 11.2029 70.0665 10.7963 69.4563 10.5928C68.8461 10.7961 68.2357 11.2029 67.7273 11.7116L59.6925 19.7464C57.7599 21.679 57.7599 24.8319 59.6925 26.866L67.7273 34.9008C68.236 35.4095 68.8461 35.8161 69.4563 36.0196C70.0665 35.8163 70.6769 35.4095 71.1853 34.9008C72.9143 33.1718 73.1179 30.4258 71.694 28.3914C73.0296 28.4952 74.3555 28.6992 75.6606 29.0016C75.5588 28.7983 75.4573 28.5947 75.2537 28.3914C86.1364 29.2052 94.6799 38.257 94.6799 49.2414C94.6799 60.7345 85.3226 70.1933 73.728 70.1933C73.1179 70.1933 72.5074 70.1933 71.999 70.0915C71.3889 70.0915 70.8802 70.1933 70.27 70.1933C58.7769 70.1933 49.3182 60.836 49.3182 49.2414C49.3182 47.1056 47.9961 45.2748 46.0635 44.5628C44.0294 45.2751 42.707 47.1059 42.707 49.2417Z" fill="#13D626"/>
<path d="M70.067 81.6866C52.1663 81.6866 37.6221 67.1424 37.6221 49.2417C37.6221 45.6819 40.5717 42.7323 44.1315 42.7323C47.6913 42.7323 50.6409 45.6819 50.6409 49.2417C50.6409 59.921 59.2861 68.6678 70.067 68.6678C80.7463 68.6678 89.4931 60.0225 89.4931 49.2417C89.4931 39.9862 82.8822 32.0529 74.0334 30.2221C74.3385 32.2562 73.7283 34.3921 72.2026 35.9178C70.982 37.1384 69.3548 37.8504 67.6258 37.8504C65.8968 37.8504 64.2693 37.1384 63.0489 35.9178L55.0141 27.883C52.4714 25.3402 52.4714 21.1703 55.0141 18.6275L63.0489 10.5927C64.2695 9.37211 65.8968 8.66016 67.6258 8.66016C69.3548 8.66016 70.9822 9.37211 72.2026 10.5927C73.4232 11.8133 74.1352 13.4406 74.1352 15.1696C74.1352 15.7797 74.0334 16.2884 73.9319 16.8986C90.2051 18.7293 102.613 32.4598 102.613 49.1399C102.512 67.1424 87.9674 81.6866 70.067 81.6866ZM44.1312 45.6819C42.1986 45.6819 40.6732 47.2076 40.6732 49.1399C40.6732 65.3116 53.8953 78.5334 70.0667 78.5334C86.2381 78.5334 99.4602 65.3113 99.4602 49.1399C99.4602 33.3751 87.1537 20.4583 71.3888 19.7464C70.7787 19.7464 70.27 19.3395 70.0667 18.8311C69.8634 18.3225 69.8634 17.7123 70.27 17.3054C70.7787 16.6953 70.982 15.9833 70.982 15.1696C70.982 14.2543 70.5751 13.3388 69.9649 12.7286C69.3548 12.1184 68.4392 11.7116 67.524 11.7116C66.6087 11.7116 65.6932 12.1184 65.083 12.7286L57.0482 20.7634C55.7261 22.0855 55.7261 24.3232 57.0482 25.6453L65.083 33.6801C66.4051 35.0023 68.6428 35.0023 69.9649 33.6801C71.1855 32.4595 71.287 30.5272 70.27 29.2051C69.9649 28.6964 69.8631 28.0863 70.1682 27.5779C70.4733 27.0692 70.982 26.7642 71.5921 26.7642C83.2885 27.5779 92.4422 37.4435 92.4422 49.1399C92.4422 61.5482 82.373 71.6174 69.9646 71.6174C57.5563 71.6174 47.4871 61.5482 47.4871 49.1399C47.5895 47.3091 46.0638 45.6819 44.1312 45.6819Z" fill="#33363A"/>
<path d="M41.0799 41.512C45.2498 45.682 44.5379 48.7334 43.9277 54.1239C38.5371 54.6326 35.486 55.3446 31.3158 51.2761C27.1458 47.1062 25.4168 41.512 25.9252 36.1217C31.3158 35.6128 36.9099 37.4436 41.0799 41.512Z" fill="#83ED3E"/>
<path d="M25.9263 36.2231L43.9285 54.2254C38.5379 54.734 35.4868 55.446 31.3166 51.3775C27.1466 47.2076 25.4176 41.6134 25.9263 36.2231Z" fill="#13D626"/>
<path d="M38.7413 56.158C35.7917 56.158 33.249 55.446 30.1978 52.3949C25.9261 48.1231 23.7902 42.1224 24.4004 36.0199C24.5022 35.3079 25.0106 34.6978 25.7225 34.6978C31.825 34.0876 37.724 36.2235 42.0975 40.4952C46.471 44.8687 46.0642 48.3267 45.5555 53.1071L45.4537 54.3277C45.3519 55.0397 44.8435 55.6499 44.1316 55.6499L42.911 55.7516C41.3856 55.9544 39.9616 56.158 38.7413 56.158ZM27.35 37.6471C27.2482 42.3257 28.9772 46.9025 32.3337 50.259C35.5884 53.5137 37.9276 53.3101 42.5044 52.8017C43.013 48.2249 43.2163 45.9873 39.9616 42.6311C36.6054 39.2743 32.0283 37.4435 27.35 37.6471Z" fill="#33363A"/>
<path d="M47.6914 41.512C43.5215 45.682 44.2334 48.7334 44.8436 54.1239C50.2342 54.6326 53.2853 55.3446 57.4555 51.2761C61.6255 47.1062 63.3545 41.512 62.8461 36.1217C57.3537 35.6128 51.7599 37.4436 47.6914 41.512Z" fill="#83ED3E"/>
<path d="M62.7444 36.2231L44.7422 54.2254C50.1328 54.734 53.1839 55.446 57.3541 51.3775C61.5241 47.2076 63.3546 41.6134 62.7444 36.2231Z" fill="#13D626"/>
<path d="M50.0305 56.1578C48.7084 56.1578 47.386 56.056 45.8606 55.8527L44.64 55.7509C43.928 55.6492 43.3179 55.1408 43.3179 54.4288L43.2161 53.2082C42.7074 48.4278 42.3008 44.868 46.6741 40.5963C50.9458 36.3245 56.9465 34.1887 63.0491 34.7988C63.761 34.9006 64.3712 35.409 64.3712 36.121C64.9814 42.2235 62.8455 48.1224 58.5737 52.496C55.5226 55.3441 52.8784 56.1578 50.0305 56.1578ZM46.1657 52.8013C50.7425 53.31 52.9802 53.5133 56.3364 50.2586C59.6929 46.9021 61.5234 42.3253 61.3201 37.6467C56.6414 37.5449 52.0646 39.2739 48.7081 42.6304C45.4537 45.8851 45.657 48.2245 46.1657 52.8013ZM10.161 45.1731H7.72003C6.90629 45.1731 6.19433 44.4611 6.19433 43.6474C6.19433 42.8337 6.90629 42.1217 7.72003 42.1217H10.161C10.9747 42.1217 11.6867 42.8337 11.6867 43.6474C11.6867 44.4611 11.0762 45.1731 10.161 45.1731ZM2.53276 45.1731H2.43097C1.61723 45.1731 0.905273 44.4611 0.905273 43.6474C0.905273 42.8337 1.61723 42.1217 2.43097 42.1217H2.53276C3.34651 42.1217 4.05846 42.8337 4.05846 43.6474C4.05846 44.4611 3.34651 45.1731 2.53276 45.1731ZM15.0429 65.8198C14.636 65.8198 14.2291 65.7181 13.9241 65.413C13.3139 64.8028 13.3139 63.8873 13.9241 63.2771L15.6531 61.5481C16.2632 60.9379 17.1788 60.9379 17.7889 61.5481C18.3991 62.1583 18.3991 63.0738 17.7889 63.684L16.0599 65.413C15.8566 65.7183 15.4498 65.8198 15.0429 65.8198ZM11.2798 69.5832C10.8729 69.5832 10.5679 69.4814 10.2628 69.1763C9.6526 68.5662 9.6526 67.6506 10.161 67.0405L10.2628 66.9387C10.8729 66.3285 11.7885 66.3285 12.3986 66.8369C13.0088 67.4471 13.0088 68.3626 12.5004 68.9728L12.3986 69.0745C12.0933 69.4814 11.6867 69.5832 11.2798 69.5832ZM16.7719 26.2556C16.365 26.2556 15.9581 26.1539 15.6531 25.8488L13.9241 24.1198C13.3139 23.5096 13.3139 22.5941 13.9241 21.9839C14.5342 21.3737 15.4498 21.3737 16.0599 21.9839L17.7889 23.7129C18.3991 24.3231 18.3991 25.2386 17.7889 25.8488C17.4838 26.0521 17.1788 26.2556 16.7719 26.2556ZM11.3816 20.8651C10.9747 20.8651 10.5679 20.6618 10.2628 20.3564L10.161 20.2546C9.55082 19.6445 9.55082 18.7289 10.161 18.1188C10.7712 17.5086 11.6867 17.5086 12.2969 18.1188L12.3986 18.2205C13.0088 18.8307 13.0088 19.7462 12.3986 20.3564C12.0933 20.6615 11.6867 20.8651 11.3816 20.8651Z" fill="#33363A"/>
</svg>
