<svg width="95" height="19" viewBox="0 0 95 19" fill="none" xmlns="http://www.w3.org/2000/svg">
<path d="M11.718 7.22523L9.47964 0L7.24152 7.22523H0L5.85898 11.6904L3.62086 18.9166L9.47964 14.4495L15.3386 18.9166L13.1005 11.6904L18.9595 7.22523H11.718ZM30.728 7.22523L28.4899 0L26.2516 7.22523H19.0101L24.8691 11.6904L22.6309 18.9166L28.4899 14.4495L34.3489 18.9166L32.1106 11.6904L37.9696 7.22523H30.728ZM49.7381 7.22523L47.5 0L45.2619 7.22523H38.0202L43.8791 11.6904L41.641 18.9166L47.5 14.4495L53.359 18.9166L51.1209 11.6904L56.9796 7.22523H49.7381ZM68.7482 7.22523L66.5101 0L64.272 7.22523H57.0304L62.8894 11.6904L60.6511 18.9166L66.5101 14.4495L72.3691 18.9166L70.1309 11.6904L75.9899 7.22523H68.7482ZM85.5204 0L83.282 7.22523H76.0405L81.8995 11.6904L79.6614 18.9166L85.5204 14.4495L91.3791 18.9166L89.141 11.6904L95 7.22523H87.7585L85.5204 0Z" fill="#E16A3E"/>
</svg>
